# xmcd
#
# Track frame offsets:
#	150
#	20485
#	33387
#	59712
#	86047
#	104937
#	123832
#	141707
#	164940
#	181525
#	215947
#	230115
#	263477
#
# Disc length: 3727
#
# Revision: 1
# Processed by: cddbd v1.5.1PL0 Copyright (c) Steve Scherf et al.
# Submitted via: CDex 1.50
# Normalized: r0:DSETVAR1,TDELIM( - )
#
DISCID=cf0e8d0d
DTITLE=Various Artist - Highstream- The Best of Mainstream Jazz
DYEAR=1990
DGENRE=Jazz
TTITLE0=Airegin - Maynard Ferguson
TTITLE1=Life is Just a Bowl of Cherries - Carmen McRae
TTITLE2=In the Back, In the Corner, In the Dark - Harold Land
TTITLE3=Sadiga - Max Roach
TTITLE4=Inner City Blues (Make me Wanna Holler) - Sarah Vaughan
TTITLE5=Homecoming - Art Farmer
TTITLE6=Ups and Downs - Bud Powell
TTITLE7=Green Stamps - Clark Terry and Bobby Brookmeyer
TTITLE8=All Blues - Morgana King
TTITLE9=Heavy Hearted Blues - Leonard Feather
TTITLE10=P.T. Blues - Blue Mitchell
TTITLE11=Serenity - Charles McPherson
TTITLE12=Scavenger - Shelley Manne
EXTD=YEAR: 1990
EXTT0=
EXTT1=
EXTT2=
EXTT3=
EXTT4=
EXTT5=
EXTT6=
EXTT7=
EXTT8=
EXTT9=
EXTT10=
EXTT11=
EXTT12=
PLAYORDER=
